REM DIRINDEX 1\2\4,1\2\5,1\2\6,1\3\7,1\3\8,1\3\9,1\3\10
REM DIRNAME folder01,folder02,folder03,folder04,folder05,folder06,folder07,folder08,folder09,folder10
TITLE ""
FILE "a_119.mp3" MP3
  TRACK 01 AUDIO
    TITLE "0:"
    INDEX 01 00:00:00
  TRACK 02 AUDIO
    TITLE "4:cjc057_02012"
    INDEX 01 00:00:13
  TRACK 03 AUDIO
    TITLE "0:"
    INDEX 01 00:01:48
  TRACK 04 AUDIO
    TITLE "5:cjc057_02013"
    INDEX 01 00:02:08
  TRACK 05 AUDIO
    TITLE "0:"
    INDEX 01 00:03:23
  TRACK 06 AUDIO
    TITLE "4:cjc057_02014"
    INDEX 01 00:04:31
  TRACK 07 AUDIO
    TITLE "0:"
    INDEX 01 00:05:36
  TRACK 08 AUDIO
    TITLE "5:cjc057_02015"
    INDEX 01 00:05:71
  TRACK 09 AUDIO
    TITLE "0:"
    INDEX 01 00:07:03
  TRACK 10 AUDIO
    TITLE "4:cjc057_02016"
    INDEX 01 00:08:09
  TRACK 11 AUDIO
    TITLE "0:"
    INDEX 01 00:09:18
  TRACK 12 AUDIO
    TITLE "5:cjc057_02017"
    INDEX 01 00:09:53
  TRACK 13 AUDIO
    TITLE "0:"
    INDEX 01 00:11:62
  TRACK 14 AUDIO
    TITLE "4:cjc057_02018"
    INDEX 01 00:12:73
  TRACK 15 AUDIO
    TITLE "0:"
    INDEX 01 00:14:25
  TRACK 16 AUDIO
    TITLE "5:cjc057_02019"
    INDEX 01 00:14:60
  TRACK 17 AUDIO
    TITLE "0:"
    INDEX 01 00:18:50
  TRACK 18 AUDIO
    TITLE "4:cjc057_02020"
    INDEX 01 00:19:56
  TRACK 19 AUDIO
    TITLE "0:"
    INDEX 01 00:20:69
  TRACK 20 AUDIO
    TITLE "5:cjc057_02021"
    INDEX 01 00:21:29
  TRACK 21 AUDIO
    TITLE "0:"
    INDEX 01 00:23:44
  TRACK 22 AUDIO
    TITLE "4:cjc057_02022"
    INDEX 01 00:24:55
  TRACK 23 AUDIO
    TITLE "0:"
    INDEX 01 00:25:74
  TRACK 24 AUDIO
    TITLE "5:cjc057_02023"
    INDEX 01 00:26:34
  TRACK 25 AUDIO
    TITLE "0:"
    INDEX 01 00:28:53
  TRACK 26 AUDIO
    TITLE "4:cjc057_02024"
    INDEX 01 00:29:64
  TRACK 27 AUDIO
    TITLE "0:"
    INDEX 01 00:31:04
  TRACK 28 AUDIO
    TITLE "5:cjc057_02025"
    INDEX 01 00:31:39
  TRACK 29 AUDIO
    TITLE "0:"
    INDEX 01 00:32:68
  TRACK 30 AUDIO
    TITLE "4:cjc057_02026"
    INDEX 01 00:34:04
  TRACK 31 AUDIO
    TITLE "0:"
    INDEX 01 00:35:15
  TRACK 32 AUDIO
    TITLE "5:cjc057_02027"
    INDEX 01 00:35:51
  TRACK 33 AUDIO
    TITLE "0:"
    INDEX 01 00:38:04
  TRACK 34 AUDIO
    TITLE "4:cjc057_02028"
    INDEX 01 00:39:13
  TRACK 35 AUDIO
    TITLE "0:"
    INDEX 01 00:40:34
  TRACK 36 AUDIO
    TITLE "5:cjc057_02029"
    INDEX 01 00:40:70
  TRACK 37 AUDIO
    TITLE "0:"
    INDEX 01 00:42:08
  TRACK 38 AUDIO
    TITLE "4:cjc057_02030"
    INDEX 01 00:43:15
  TRACK 39 AUDIO
    TITLE "0:"
    INDEX 01 00:44:32
  TRACK 40 AUDIO
    TITLE "5:cjc057_02031"
    INDEX 01 00:44:67
  TRACK 41 AUDIO
    TITLE "0:"
    INDEX 01 00:46:11
  TRACK 42 AUDIO
    TITLE "4:cjc057_02032"
    INDEX 01 00:47:21
  TRACK 43 AUDIO
    TITLE "0:"
    INDEX 01 00:48:48
  TRACK 44 AUDIO
    TITLE "5:cjc057_02033"
    INDEX 01 00:49:08
  TRACK 45 AUDIO
    TITLE "0:"
    INDEX 01 00:52:39
  TRACK 46 AUDIO
    TITLE "4:cjc057_02034"
    INDEX 01 00:53:49
  TRACK 47 AUDIO
    TITLE "0:"
    INDEX 01 00:54:60
  TRACK 48 AUDIO
    TITLE "5:cjc057_02035"
    INDEX 01 00:55:20
  TRACK 49 AUDIO
    TITLE "0:"
    INDEX 01 00:58:15
  TRACK 50 AUDIO
    TITLE "4:cjc057_02036"
    INDEX 01 00:59:22
  TRACK 51 AUDIO
    TITLE "0:"
    INDEX 01 01:00:39
  TRACK 52 AUDIO
    TITLE "5:cjc057_02037"
    INDEX 01 01:00:74
  TRACK 53 AUDIO
    TITLE "0:"
    INDEX 01 01:03:69
  TRACK 54 AUDIO
    TITLE "4:cjc057_02038"
    INDEX 01 01:05:05
  TRACK 55 AUDIO
    TITLE "0:"
    INDEX 01 01:06:16
  TRACK 56 AUDIO
    TITLE "5:cjc057_02039"
    INDEX 01 01:06:51
  TRACK 57 AUDIO
    TITLE "0:"
    INDEX 01 01:08:68
  TRACK 58 AUDIO
    TITLE "4:cjc057_02040"
    INDEX 01 01:10:00
  TRACK 59 AUDIO
    TITLE "0:"
    INDEX 01 01:11:19
  TRACK 60 AUDIO
    TITLE "5:cjc057_02041"
    INDEX 01 01:11:54
  TRACK 61 AUDIO
    TITLE "0:"
    INDEX 01 01:13:20
  TRACK 62 AUDIO
    TITLE "4:cjc057_02042"
    INDEX 01 01:14:29
  TRACK 63 AUDIO
    TITLE "0:"
    INDEX 01 01:15:50
  TRACK 64 AUDIO
    TITLE "5:cjc057_02043"
    INDEX 01 01:16:11
  TRACK 65 AUDIO
    TITLE "0:"
    INDEX 01 01:17:04
  TRACK 66 AUDIO
    TITLE "4:cjc057_02044"
    INDEX 01 01:18:13
  TRACK 67 AUDIO
    TITLE "0:"
    INDEX 01 01:19:17
  TRACK 68 AUDIO
    TITLE "5:cjc057_02045"
    INDEX 01 01:19:52
  TRACK 69 AUDIO
    TITLE "0:"
    INDEX 01 01:22:05
  TRACK 70 AUDIO
    TITLE "4:cjc057_02046"
    INDEX 01 01:23:15
  TRACK 71 AUDIO
    TITLE "0:"
    INDEX 01 01:24:37
  TRACK 72 AUDIO
    TITLE "5:cjc057_02047"
    INDEX 01 01:24:73
  TRACK 73 AUDIO
    TITLE "0:"
    INDEX 01 01:27:20
  TRACK 74 AUDIO
    TITLE "4:cjc057_02048"
    INDEX 01 01:28:25
  TRACK 75 AUDIO
    TITLE "0:"
    INDEX 01 01:29:43
  TRACK 76 AUDIO
    TITLE "5:cjc057_02049"
    INDEX 01 01:30:03
  TRACK 77 AUDIO
    TITLE "0:"
    INDEX 01 01:30:69
  TRACK 78 AUDIO
    TITLE "4:cjc057_02050"
    INDEX 01 01:32:04
  TRACK 79 AUDIO
    TITLE "0:"
    INDEX 01 01:33:21
  TRACK 80 AUDIO
    TITLE "5:cjc057_02051"
    INDEX 01 01:33:56
  TRACK 81 AUDIO
    TITLE "0:"
    INDEX 01 01:37:07
  TRACK 82 AUDIO
    TITLE "4:cjc057_02052"
    INDEX 01 01:38:16
  TRACK 83 AUDIO
    TITLE "0:"
    INDEX 01 01:39:27
  TRACK 84 AUDIO
    TITLE "5:cjc057_02053"
    INDEX 01 01:39:63
  TRACK 85 AUDIO
    TITLE "0:"
    INDEX 01 01:42:24
  TRACK 86 AUDIO
    TITLE "4:cjc057_02054"
    INDEX 01 01:43:35
  TRACK 87 AUDIO
    TITLE "0:"
    INDEX 01 01:44:46
  TRACK 88 AUDIO
    TITLE "5:cjc057_02055"
    INDEX 01 01:45:06
  TRACK 89 AUDIO
    TITLE "0:"
    INDEX 01 01:48:14
  TRACK 90 AUDIO
    TITLE "4:cjc057_02056"
    INDEX 01 01:49:22
  TRACK 91 AUDIO
    TITLE "0:"
    INDEX 01 01:50:39
  TRACK 92 AUDIO
    TITLE "5:cjc057_02057"
    INDEX 01 01:50:74
  TRACK 93 AUDIO
    TITLE "0:"
    INDEX 01 01:54:31
  TRACK 94 AUDIO
    TITLE "4:cjc057_02058"
    INDEX 01 01:55:42
  TRACK 95 AUDIO
    TITLE "0:"
    INDEX 01 01:56:49
  TRACK 96 AUDIO
    TITLE "5:cjc057_02059"
    INDEX 01 01:57:08
  TRACK 97 AUDIO
    TITLE "0:"
    INDEX 01 01:58:25
  TRACK 98 AUDIO
    TITLE "4:cjc057_02060"
    INDEX 01 01:59:34
  TRACK 99 AUDIO
    TITLE "0:"
    INDEX 01 02:00:45
  TRACK 100 AUDIO
    TITLE "5:cjc057_02061"
    INDEX 01 02:01:05
  TRACK 101 AUDIO
    TITLE "0:"
    INDEX 01 02:02:30
  TRACK 102 AUDIO
    TITLE "4:cjc057_02062"
    INDEX 01 02:03:38
  TRACK 103 AUDIO
    TITLE "0:"
    INDEX 01 02:04:60
  TRACK 104 AUDIO
    TITLE "5:cjc057_02063"
    INDEX 01 02:05:19
  TRACK 105 AUDIO
    TITLE "0:"
    INDEX 01 02:06:40
  TRACK 106 AUDIO
    TITLE "4:cjc057_02064"
    INDEX 01 02:07:49
  TRACK 107 AUDIO
    TITLE "0:"
    INDEX 01 02:08:56
  TRACK 108 AUDIO
    TITLE "5:cjc057_02065"
    INDEX 01 02:09:13
  TRACK 109 AUDIO
    TITLE "0:"
    INDEX 01 02:12:42
  TRACK 110 AUDIO
    TITLE "4:cjc057_02066"
    INDEX 01 02:13:50
  TRACK 111 AUDIO
    TITLE "0:"
    INDEX 01 02:15:00
  TRACK 112 AUDIO
    TITLE "5:cjc057_02067"
    INDEX 01 02:15:35
  TRACK 113 AUDIO
    TITLE "0:"
    INDEX 01 02:17:65
